<svg width="126" height="133" viewBox="0 0 126 133" fill="none" xmlns="http://www.w3.org/2000/svg">
<g filter="url(#filter0_d_0_1)">
<path d="M99.3254 15.3134L94.4054 86.8018C93.7426 96.4333 82.556 101.379 74.9861 95.3871L11.4573 45.1017C3.88742 39.1099 6.13227 27.0866 15.3542 24.23L83.803 3.02681C91.8567 0.532053 99.9043 6.90204 99.3254 15.3134Z" stroke="#D1A76D" stroke-opacity="0.49" stroke-width="4" shape-rendering="crispEdges"/>
</g>
<g filter="url(#filter1_d_0_1)">
<path d="M103.211 26.1164C112.607 23.2058 121.996 30.6375 121.321 40.4507L116.401 111.939C115.627 123.176 102.576 128.946 93.7448 121.955L30.216 71.6699C21.3845 64.6795 24.0035 50.6523 34.7624 47.3195L103.211 26.1164Z" fill="#EA3D3D" fill-opacity="0.69" shape-rendering="crispEdges"/>
<path d="M119.325 40.3134L114.405 111.802C113.743 121.433 102.556 126.379 94.9861 120.387L31.4573 70.1017C23.8874 64.1099 26.1323 52.0866 35.3542 49.23L103.803 28.0268C111.857 25.5321 119.904 31.902 119.325 40.3134Z" stroke="#D1A76D" stroke-width="4" shape-rendering="crispEdges"/>
</g>
<defs>
<filter id="filter0_d_0_1" x="0.899597" y="0.477844" width="104.456" height="107.52" filterUnits="userSpaceOnUse" color-interpolation-filters="sRGB">
<feFlood flood-opacity="0" result="BackgroundImageFix"/>
<feColorMatrix in="SourceAlpha" type="matrix" values="0 0 0 0 0 0 0 0 0 0 0 0 0 0 0 0 0 0 127 0" result="hardAlpha"/>
<feOffset dy="4"/>
<feGaussianBlur stdDeviation="2"/>
<feComposite in2="hardAlpha" operator="out"/>
<feColorMatrix type="matrix" values="0 0 0 0 0 0 0 0 0 0 0 0 0 0 0 0 0 0 0.25 0"/>
<feBlend mode="normal" in2="BackgroundImageFix" result="effect1_dropShadow_0_1"/>
<feBlend mode="normal" in="SourceGraphic" in2="effect1_dropShadow_0_1" result="shape"/>
</filter>
<filter id="filter1_d_0_1" x="20.8996" y="25.4778" width="104.456" height="107.52" filterUnits="userSpaceOnUse" color-interpolation-filters="sRGB">
<feFlood flood-opacity="0" result="BackgroundImageFix"/>
<feColorMatrix in="SourceAlpha" type="matrix" values="0 0 0 0 0 0 0 0 0 0 0 0 0 0 0 0 0 0 127 0" result="hardAlpha"/>
<feOffset dy="4"/>
<feGaussianBlur stdDeviation="2"/>
<feComposite in2="hardAlpha" operator="out"/>
<feColorMatrix type="matrix" values="0 0 0 0 0 0 0 0 0 0 0 0 0 0 0 0 0 0 0.25 0"/>
<feBlend mode="normal" in2="BackgroundImageFix" result="effect1_dropShadow_0_1"/>
<feBlend mode="normal" in="SourceGraphic" in2="effect1_dropShadow_0_1" result="shape"/>
</filter>
</defs>
</svg>
